<svg width="48" height="48" viewBox="0 0 48 48" fill="none" xmlns="http://www.w3.org/2000/svg">
<rect width="48" height="48" rx="14.4" fill="url(#paint0_linear_1993_10171)"/>
<path d="M28.6916 24.4442H34.3196C34.2236 30.0482 33.1196 30.9722 29.6756 33.0122C29.2796 33.2522 29.1476 33.7562 29.3876 34.1642C29.6276 34.5602 30.1316 34.6922 30.5396 34.4522C34.5956 32.0522 36.0116 30.5882 36.0116 23.6042V17.1362C36.0116 15.0842 34.3436 13.4282 32.3036 13.4282H28.7036C26.5916 13.4282 24.9956 15.0242 24.9956 17.1362V20.7362C24.9836 22.8482 26.5796 24.4442 28.6916 24.4442Z" fill="white"/>
<path d="M15.7076 24.4442H21.3356C21.2396 30.0482 20.1356 30.9722 16.6916 33.0122C16.2956 33.2522 16.1636 33.7562 16.4036 34.1642C16.6436 34.5602 17.1476 34.6922 17.5556 34.4522C21.6116 32.0522 23.0276 30.5882 23.0276 23.6042V17.1362C23.0276 15.0842 21.3596 13.4282 19.3196 13.4282H15.7196C13.5956 13.4282 11.9996 15.0242 11.9996 17.1362V20.7362C11.9996 22.8482 13.5956 24.4442 15.7076 24.4442Z" fill="white"/>
<defs>
<linearGradient id="paint0_linear_1993_10171" x1="11" y1="10" x2="48" y2="48" gradientUnits="userSpaceOnUse">
<stop stop-color="#654AFD"/>
<stop offset="1" stop-color="#E74CF4"/>
</linearGradient>
</defs>
</svg>
