<svg width="74" height="74" viewBox="0 0 74 74" fill="none" xmlns="http://www.w3.org/2000/svg">
<path d="M34.2539 0.101173C31.7969 0.491402 30.0191 1.02617 28.1113 1.98008C22.6191 4.72617 18.948 9.82812 17.7629 16.4188C17.3004 18.9914 17.2859 23.0094 17.7484 25.293C18.4422 28.675 20.3066 33.5168 22.4023 37.3324L23.3852 39.0957L18.8758 39.168C14.2941 39.2402 14.0773 39.2691 13.557 39.8473C13.427 39.9918 10.3195 47.1027 6.66289 55.6445C0.809375 69.2883 0 71.2539 0 71.9043C0 72.7137 0.303516 73.2918 0.953906 73.7254C1.35859 73.9855 2.34141 74 37 74C71.6586 74 72.6414 73.9855 73.0461 73.7254C73.6965 73.2918 74 72.7137 74 71.8754C74 71.2105 73.2773 69.4473 67.4094 55.7602C63.7961 47.3051 60.732 40.252 60.6164 40.0785C60.0961 39.2691 59.9949 39.2402 55.1242 39.168L50.6148 39.0957L51.6121 37.2891C53.7223 33.4445 55.5867 28.6172 56.2227 25.3652C57.35 19.5406 56.1359 13.0367 53.0285 8.31055C52.0602 6.85078 49.5453 4.30703 48.1 3.35313C45.7297 1.76328 43.0559 0.693748 40.3387 0.231247C39.0812 0.0144501 35.2801 -0.0722656 34.2539 0.101173ZM40.6133 4.88515C44.9348 6.05585 48.2012 8.62852 50.1379 12.4297C51.7277 15.5227 52.4793 19.7285 52.0457 23.0527C51.3809 28.1691 48.418 34.6297 43.1426 42.4922C41.6828 44.6746 38.3586 49.1984 37.3758 50.3691L37 50.8027L36.6242 50.3691C36.4219 50.1234 35.4246 48.8227 34.4129 47.4785C28.2992 39.3703 24.0355 31.6379 22.5469 25.9867C21.9109 23.573 21.723 21.6508 21.9398 19.3961C22.3734 14.5109 23.8766 11.1867 26.9262 8.28164C28.9641 6.34492 31.4066 5.20312 34.832 4.56718C35.0344 4.53828 36.1762 4.52383 37.3613 4.55273C38.9801 4.58164 39.8039 4.66836 40.6133 4.88515ZM27.302 45.3395C27.9234 46.2789 28.7039 47.4207 29.0363 47.8687L29.6434 48.6926L29.3109 48.8949C29.123 49.0105 25.2352 51.0051 20.668 53.332C16.1008 55.659 11.8805 57.8125 11.3168 58.1305L10.2617 58.6941L10.6664 57.7691C10.8832 57.2633 12.3285 53.8813 13.875 50.2535L16.6934 43.6484H21.4195H26.1602L27.302 45.3395ZM60.4574 51.034C62.1918 55.0953 63.5648 58.4773 63.4926 58.5496C63.4203 58.6219 58.6797 61.1078 52.9418 64.0996L42.5066 69.5195H40.223H37.9395L31.3633 62.9434C26.1457 57.7258 24.8305 56.3383 25.0039 56.2227C25.1195 56.1504 26.8395 55.2543 28.8195 54.257L32.4184 52.4215L32.7074 52.7684C34.2828 54.734 35.468 56.107 35.7715 56.3094C36.3063 56.6562 37.2746 56.7285 37.8961 56.4684C38.7633 56.107 42.9402 50.875 46.3223 45.9176L47.8543 43.6484H52.5805H57.3066L60.4574 51.034ZM25.9434 64.0273L31.4355 69.5195H18.5434H5.63672L5.7668 69.2016C6.30156 67.843 7.42891 65.3715 7.57344 65.2125C7.73242 65.0535 20.1043 58.6219 20.3789 58.5496C20.4223 58.5496 22.9227 61.0066 25.9434 64.0273ZM66.9324 66.1664L68.3488 69.4473L64.3742 69.4906C62.1918 69.5051 58.6219 69.5051 56.4395 69.4906L52.4648 69.4473L58.9254 66.0941C62.4809 64.2441 65.4148 62.7699 65.4582 62.8133C65.5016 62.8422 66.1664 64.3598 66.9324 66.1664Z" fill="#DDDFEE"/>
<path d="M35.28 13.2391C32.0425 14.1062 29.9757 17.3004 30.496 20.5957C30.8573 22.8215 32.1726 24.5703 34.2105 25.5531C35.3089 26.0734 35.3812 26.0879 36.9999 26.0879C38.6187 26.0879 38.6909 26.0734 39.7894 25.5531C41.8273 24.5703 43.1714 22.7781 43.5038 20.5812C44.212 15.8984 39.8616 12.0105 35.28 13.2391ZM37.7804 17.6906C38.5319 18.0086 39.0523 18.7891 39.0523 19.5984C39.0523 20.3645 38.7632 20.8414 38.0116 21.3473C37.13 21.9543 35.9737 21.6652 35.2222 20.6391C34.7886 20.0609 34.8464 19.0637 35.3378 18.4133C35.9882 17.5605 36.8554 17.3004 37.7804 17.6906Z" fill="#DDDFEE"/>
</svg>
