<svg width="235" height="48" viewBox="0 0 235 48" fill="none" xmlns="http://www.w3.org/2000/svg">
<rect width="48" height="48" rx="14.4" fill="url(#paint0_linear_1993_10169)"/>
<path d="M28.6916 24.4442H34.3196C34.2236 30.0482 33.1196 30.9722 29.6756 33.0122C29.2796 33.2522 29.1476 33.7562 29.3876 34.1642C29.6276 34.5602 30.1316 34.6922 30.5396 34.4522C34.5956 32.0522 36.0116 30.5882 36.0116 23.6042V17.1362C36.0116 15.0842 34.3436 13.4282 32.3036 13.4282H28.7036C26.5916 13.4282 24.9956 15.0242 24.9956 17.1362V20.7362C24.9836 22.8482 26.5796 24.4442 28.6916 24.4442Z" fill="white"/>
<path d="M15.7076 24.4442H21.3356C21.2396 30.0482 20.1356 30.9722 16.6916 33.0122C16.2956 33.2522 16.1636 33.7562 16.4036 34.1642C16.6436 34.5602 17.1476 34.6922 17.5556 34.4522C21.6116 32.0522 23.0276 30.5882 23.0276 23.6042V17.1362C23.0276 15.0842 21.3596 13.4282 19.3196 13.4282H15.7196C13.5956 13.4282 11.9996 15.0242 11.9996 17.1362V20.7362C11.9996 22.8482 13.5956 24.4442 15.7076 24.4442Z" fill="white"/>
<path d="M74.4 16.7C77.44 16.7 79.84 18.46 79.84 22.204V33.5H76.448V23.164C76.448 20.956 75.52 19.548 73.216 19.548C70.624 19.548 68.96 21.116 68.96 23.548V33.5H65.6V17.148H68.96V19.26H69.024C69.888 17.98 71.584 16.7 74.4 16.7ZM90.2725 33.98C85.1525 33.98 82.0485 30.428 82.0485 25.34C82.0485 20.252 85.1525 16.7 90.2725 16.7C95.3925 16.7 98.4965 20.252 98.4965 25.34C98.4965 30.428 95.3925 33.98 90.2725 33.98ZM90.2725 31.228C93.4725 31.228 95.1365 28.7 95.1365 25.34C95.1365 21.948 93.4725 19.452 90.2725 19.452C87.0725 19.452 85.4085 21.948 85.4085 25.34C85.4085 28.7 87.0725 31.228 90.2725 31.228ZM112.083 23.132C111.955 21.468 110.899 19.452 108.019 19.452C104.723 19.452 103.315 22.268 103.315 25.34C103.315 28.412 104.691 31.228 108.019 31.228C110.899 31.228 111.955 29.244 112.083 27.42H115.443C115.187 31.196 112.275 33.98 108.019 33.98C103.123 33.98 99.9548 30.46 99.9548 25.34C99.9548 20.22 103.123 16.7 107.987 16.7C112.243 16.7 115.027 19.42 115.443 23.132H112.083ZM125.023 33.98C119.903 33.98 116.799 30.428 116.799 25.34C116.799 20.252 119.903 16.7 125.023 16.7C130.143 16.7 133.247 20.252 133.247 25.34C133.247 30.428 130.143 33.98 125.023 33.98ZM125.023 31.228C128.223 31.228 129.887 28.7 129.887 25.34C129.887 21.948 128.223 19.452 125.023 19.452C121.823 19.452 120.159 21.948 120.159 25.34C120.159 28.7 121.823 31.228 125.023 31.228ZM147.057 10.62H150.417V33.5H147.057V31.612H146.993C146.129 32.732 144.529 33.98 142.001 33.98C137.809 33.98 134.705 30.716 134.705 25.34C134.705 19.964 137.809 16.7 142.001 16.7C144.529 16.7 146.129 17.884 146.993 19.132H147.057V10.62ZM142.577 31.228C145.329 31.228 147.025 28.956 147.025 25.34C147.025 21.692 145.329 19.452 142.577 19.452C139.633 19.452 138.065 22.14 138.065 25.34C138.065 28.54 139.633 31.228 142.577 31.228ZM160.863 31.228C163.647 31.228 164.767 29.5 165.055 28.508H168.415C167.583 31.612 165.151 33.98 160.959 33.98C155.871 33.98 152.767 30.46 152.767 25.34C152.767 20.028 155.871 16.7 160.799 16.7C166.079 16.7 168.671 20.38 168.671 26.204H156.127C156.127 28.956 157.887 31.228 160.863 31.228ZM160.799 19.356C158.079 19.356 156.127 21.18 156.127 23.708H165.311C165.311 21.18 163.519 19.356 160.799 19.356Z" fill="white"/>
<defs>
<linearGradient id="paint0_linear_1993_10169" x1="11" y1="10" x2="48" y2="48" gradientUnits="userSpaceOnUse">
<stop stop-color="#654AFD"/>
<stop offset="1" stop-color="#E74CF4"/>
</linearGradient>
</defs>
</svg>
