<svg width="26" height="27" viewBox="0 0 26 27" fill="none" xmlns="http://www.w3.org/2000/svg">
<path d="M26 13.0005C26 13.8755 25.3125 14.5005 24.5 14.5005H14.5V24.5005C14.5 25.3755 13.8125 26.063 13 26.063C12.125 26.063 11.5 25.3755 11.5 24.5005V14.5005H1.5C0.625 14.5005 0 13.8755 0 13.063C0 12.188 0.625 11.5005 1.5 11.5005H11.5V1.50049C11.5 0.687988 12.125 0.0629883 13 0.0629883C13.8125 0.0629883 14.5 0.687988 14.5 1.50049V11.5005H24.5C25.3125 11.5005 26 12.188 26 13.0005Z" fill="#BABACF"/>
</svg>
