<svg width="48" height="48" viewBox="0 0 48 48" fill="none" xmlns="http://www.w3.org/2000/svg">
<rect width="48" height="48" rx="14.4" fill="url(#paint0_linear_2257_14086)"/>
<path d="M28.6922 24.4442H34.3202C34.2242 30.0482 33.1202 30.9722 29.6762 33.0122C29.2802 33.2522 29.1482 33.7562 29.3882 34.1642C29.6282 34.5602 30.1322 34.6922 30.5402 34.4522C34.5962 32.0522 36.0122 30.5882 36.0122 23.6042V17.1362C36.0122 15.0842 34.3442 13.4282 32.3042 13.4282H28.7042C26.5922 13.4282 24.9962 15.0242 24.9962 17.1362V20.7362C24.9842 22.8482 26.5802 24.4442 28.6922 24.4442Z" fill="white"/>
<path d="M15.708 24.4442H21.336C21.24 30.0482 20.136 30.9722 16.692 33.0122C16.296 33.2522 16.164 33.7562 16.404 34.1642C16.644 34.5602 17.148 34.6922 17.556 34.4522C21.612 32.0522 23.028 30.5882 23.028 23.6042V17.1362C23.028 15.0842 21.36 13.4282 19.32 13.4282H15.72C13.596 13.4282 12 15.0242 12 17.1362V20.7362C12 22.8482 13.596 24.4442 15.708 24.4442Z" fill="white"/>
<defs>
<linearGradient id="paint0_linear_2257_14086" x1="11" y1="10" x2="48" y2="48" gradientUnits="userSpaceOnUse">
<stop stop-color="#654AFD"/>
<stop offset="1" stop-color="#E74CF4"/>
</linearGradient>
</defs>
</svg>
